<?xml version="1.0" encoding="UTF-8"?>
<svg id="Layer_1" data-name="Layer 1" xmlns="http://www.w3.org/2000/svg" viewBox="0 0 177.3 165.41">
  <defs>
    <style>
      .cls-1 {
        fill: #a057ff;
      }
    </style>
  </defs>
  <path class="cls-1" d="M53.23,95.5c.96,5.84,1.08,12.77,7.71,14.79l84.27.73c6.63,4.26,5.13,13.01-2.42,14.53-26.34-2.27-57.28,2.85-83.06-.05-7.53-.85-13.99-5.96-17.7-12.3L23.35,16.07c-1.81-2.68-20.32,3.35-22.91-5.28C-1.27,5.08,2.18.98,7.67.43,21.06-.89,35.61-.04,38.84,15.56l128.94-.11c8.37.76,9.94,5.93,9.43,13.53-.75,11.3-6.24,39.46-9.46,50.53-1.92,6.61-8.51,15.98-16.02,15.98H53.23Z"/>
  <circle class="cls-1" cx="64.73" cy="150.49" r="14.92"/>
  <circle class="cls-1" cx="134.73" cy="150.49" r="14.92"/>
</svg>