<?xml version="1.0" encoding="UTF-8"?>
<svg id="Layer_1" xmlns="http://www.w3.org/2000/svg" version="1.1" viewBox="0 0 33.6 33.6">
  <!-- Generator: Adobe Illustrator 29.4.0, SVG Export Plug-In . SVG Version: 2.1.0 Build 152)  -->
  <defs>
    <style>
      .st0 {
        fill: #231f20;
      }
    </style>
  </defs>
  <path class="st0" d="M19.6,16.8l13.4-13.4c.8-.8.8-2.1,0-2.8-.8-.8-2-.8-2.8,0l-13.4,13.4L3.4.6C2.6-.2,1.4-.2.6.6-.2,1.4-.2,2.6.6,3.4l13.4,13.4L.6,30.2c-.8.8-.8,2,0,2.8.8.8,2,.8,2.8,0h0s13.4-13.4,13.4-13.4l13.4,13.4h0c.8.8,2.1.8,2.8,0,.8-.8.8-2,0-2.8l-13.4-13.4Z"/>
</svg>