<?xml version="1.0" encoding="UTF-8"?>
<svg id="Layer_1" data-name="Layer 1" xmlns="http://www.w3.org/2000/svg" viewBox="0 0 159.82 161.01">
  <path d="M114.63,28.06c-3.63-15.75,25.58-16.93,29.25-7.74,3.18,7.96-.97,26.74.96,36.04,5.34,7.68,17.92,11.21,14.34,22.76-1.8,5.8-9.42,6.43-14.55,5.94-1.49,18.24,2.02,39.65,0,57.51-1.11,9.84-8.74,16.67-18.46,17.54-30.35,2.72-65.65-1.55-96.35-.73-8.86-2.8-14.01-9.75-15.08-18.92-2.01-17.3,1.27-37.76-.1-55.4-10.15,1.89-18.86-6.42-12.46-15.95C24.39,49.15,45.11,27.1,67.63,7.54c5.8-5.03,10.59-10.66,18.52-5.49l28.48,26.01ZM99.64,145.06v-34.5c0-2.27-5.56-7.93-7.99-9.01-5.2-2.31-17.83-2.32-23.02,0-3.79,1.69-8.99,7.87-8.99,12.01v31.5h40Z"/>
</svg>